<svg viewBox="0 0 1024 1024" xmlns="http://www.w3.org/2000/svg" xmlns:xlink="http://www.w3.org/1999/xlink" overflow="hidden"><g id="设计"><g><path d="M512 587.243C448.096 587.243 388.017 562.357 342.83 517.17 297.642 471.983 272.757 411.904 272.757 348 272.757 284.096 297.643 224.017 342.83 178.83 388.017 133.642 448.096 108.757 512 108.757 575.904 108.757 635.983 133.643 681.17 178.83 726.358 224.017 751.243 284.096 751.243 348 751.243 411.904 726.357 471.983 681.17 517.17 635.983 562.357 575.904 587.243 512 587.243ZM512 124.757C388.903 124.757 288.757 224.903 288.757 348 288.757 471.097 388.903 571.243 512 571.243 635.097 571.243 735.243 471.097 735.243 348 735.243 224.903 635.097 124.757 512 124.757Z" fill="#FFB450"/><path d="M796 348C796 272.141 766.459 200.822 712.818 147.182 659.177 93.542 587.859 64 512 64 436.141 64 364.822 93.541 311.182 147.182 257.542 200.823 228 272.141 228 348 228 423.859 257.541 495.178 311.182 548.818 357.205 594.841 416.247 623.103 480 630.207L480 736C480 740.418 483.582 744 488 744L536 744C540.418 744 544 740.418 544 736L544 630.208C607.753 623.104 666.795 594.842 712.818 548.819 766.459 495.178 796 423.859 796 348ZM528 632 528 728 496 728 496 632 528 632ZM512 616C364.225 616 244 495.775 244 348 244 200.225 364.225 80 512 80 659.775 80 780 200.225 780 348 780 495.775 659.775 616 512 616Z" fill="#666666"/><path d="M512 960C479.04 960 452.225 933.185 452.225 900.225L452.225 736C452.225 731.582 455.807 728 460.225 728L563.776 728C568.194 728 571.776 731.582 571.776 736L571.776 900.225C571.775 933.185 544.96 960 512 960ZM468.225 744 468.225 900.225C468.225 924.362 487.862 944 512 944 536.138 944 555.775 924.362 555.775 900.225L555.775 744 468.225 744Z" fill="#FFB450"/></g></g><g id="参考线_1_"></g></svg>